<svg id="LOGO" xmlns="http://www.w3.org/2000/svg" width="512" height="512" viewBox="0 0 512 512">
  <defs>
    <style>
      .cls-1 {
        fill: #073f89;
      }

      .cls-1, .cls-2 {
        fill-rule: evenodd;
      }

      .cls-2 {
        fill: #e46713;
      }
    </style>
  </defs>
  <path id="T组合" class="cls-1" d="M90.309,101.874v81.6L201.2,204.6V476.773l55.2,24.481,71.044-30.241-0.48-245.293L392.245,214.2v-60l-233.772-86.4Zm68.644-28.629v86.4l100.325,23.042V493.732L323.1,467.2V196.131l64.842,13.436V158.205Z"/>
  <path id="橙色线条" class="cls-2" d="M373.166,56.443c-70.309,43.191-498.638,540.266,37.665,269.706,0,0-293.035,241.2-334.922,93.509-23.041-81.24,57.353-177.63,138.068-248.517S375.728,54.869,373.166,56.443Z"/>
  <path id="箭头组合" class="cls-2" d="M440.1,12.011L337.836,40.387l36.783,15.731,0.2,34.6ZM416.3,23.89L378.482,50.305l-22-8.429Z"/>
</svg>
